<svg id="Layer_1" data-name="Layer 1" xmlns="http://www.w3.org/2000/svg" viewBox="0 0 877.95 672.23"><defs><style>.cls-1{fill:#fff;}.cls-1,.cls-2,.cls-3,.cls-4,.cls-5,.cls-6{stroke:#1e1e1e;stroke-miterlimit:10;stroke-width:0.5px;opacity:0.75;}.cls-2{fill:#e73e00;}.cls-3{fill:#730300;}.cls-4{fill:#4dff00;}.cls-5{fill:#48474b;}.cls-6{fill:#0042ff;}</style></defs><g id="Spaces"><polygon class="cls-1" points="830.22 55.12 830.22 82.53 853.96 96.24 877.7 82.53 877.7 55.12 853.96 41.41 830.22 55.12"/><polygon class="cls-1" points="806.51 589.7 806.51 617.11 830.25 630.82 853.99 617.11 853.99 589.7 830.25 575.99 806.51 589.7"/><polygon class="cls-1" points="806.51 507.45 806.51 534.87 830.25 548.58 853.99 534.87 853.99 507.45 830.25 493.75 806.51 507.45"/><polygon class="cls-1" points="782.79 384.09 782.79 411.5 806.53 425.21 830.28 411.5 830.28 384.09 806.53 370.38 782.79 384.09"/><polygon class="cls-1" points="806.51 342.97 806.51 370.38 830.25 384.09 853.99 370.38 853.99 342.97 830.25 329.26 806.51 342.97"/><polygon class="cls-1" points="806.51 260.73 806.51 288.14 830.25 301.85 853.99 288.14 853.99 260.73 830.25 247.02 806.51 260.73"/><polygon class="cls-1" points="782.79 137.36 782.79 164.78 806.53 178.48 830.28 164.78 830.28 137.36 806.53 123.65 782.79 137.36"/><polygon class="cls-1" points="735.37 630.82 735.37 658.23 759.11 671.94 782.85 658.23 782.85 630.82 759.11 617.11 735.37 630.82"/><polygon class="cls-1" points="759.08 507.45 759.08 534.87 782.82 548.58 806.56 534.87 806.56 507.45 782.82 493.75 759.08 507.45"/><polygon class="cls-1" points="735.37 384.09 735.37 411.5 759.11 425.21 782.85 411.5 782.85 384.09 759.11 370.38 735.37 384.09"/><polygon class="cls-1" points="759.08 260.73 759.08 288.14 782.82 301.85 806.56 288.14 806.56 260.73 782.82 247.02 759.08 260.73"/><polygon class="cls-1" points="735.37 137.36 735.37 164.78 759.11 178.48 782.85 164.78 782.85 137.36 759.11 123.65 735.37 137.36"/><polygon class="cls-1" points="687.94 630.82 687.94 658.23 711.68 671.94 735.42 658.23 735.42 630.82 711.68 617.11 687.94 630.82"/><polygon class="cls-1" points="711.65 507.45 711.65 534.87 735.39 548.58 759.14 534.87 759.14 507.45 735.39 493.75 711.65 507.45"/><polygon class="cls-1" points="687.94 384.09 687.94 411.5 711.68 425.21 735.42 411.5 735.42 384.09 711.68 370.38 687.94 384.09"/><polygon class="cls-1" points="711.65 260.73 711.65 288.14 735.39 301.85 759.14 288.14 759.14 260.73 735.39 247.02 711.65 260.73"/><polygon class="cls-1" points="640.51 630.82 640.51 658.23 664.25 671.94 688 658.23 688 630.82 664.25 617.11 640.51 630.82"/><polygon class="cls-1" points="664.23 507.45 664.23 534.87 687.97 548.58 711.71 534.87 711.71 507.45 687.97 493.75 664.23 507.45"/><polygon class="cls-1" points="640.51 137.36 640.51 164.78 664.25 178.48 688 164.78 688 137.36 664.25 123.65 640.51 137.36"/><polygon class="cls-1" points="664.23 14 664.23 41.41 687.97 55.12 711.71 41.41 711.71 14 687.97 0.29 664.23 14"/><polygon class="cls-1" points="616.8 507.45 616.8 534.87 640.54 548.58 664.28 534.87 664.28 507.45 640.54 493.75 616.8 507.45"/><polygon class="cls-1" points="593.09 384.09 593.09 411.5 616.83 425.21 640.57 411.5 640.57 384.09 616.83 370.38 593.09 384.09"/><polygon class="cls-1" points="616.8 260.73 616.8 288.14 640.54 301.85 664.28 288.14 664.28 260.73 640.54 247.02 616.8 260.73"/><polygon class="cls-1" points="593.09 137.36 593.09 164.78 616.83 178.48 640.57 164.78 640.57 137.36 616.83 123.65 593.09 137.36"/><polygon class="cls-1" points="616.8 14 616.8 41.41 640.54 55.12 664.28 41.41 664.28 14 640.54 0.29 616.8 14"/><polygon class="cls-1" points="569.37 507.45 569.37 534.87 593.11 548.58 616.86 534.87 616.86 507.45 593.11 493.75 569.37 507.45"/><polygon class="cls-1" points="545.66 384.09 545.66 411.5 569.4 425.21 593.14 411.5 593.14 384.09 569.4 370.38 545.66 384.09"/><polygon class="cls-1" points="569.37 260.73 569.37 288.14 593.11 301.85 616.86 288.14 616.86 260.73 593.11 247.02 569.37 260.73"/><polygon class="cls-1" points="545.66 137.36 545.66 164.78 569.4 178.48 593.14 164.78 593.14 137.36 569.4 123.65 545.66 137.36"/><polygon class="cls-1" points="569.37 14 569.37 41.41 593.11 55.12 616.86 41.41 616.86 14 593.11 0.29 569.37 14"/><polygon class="cls-1" points="498.23 630.82 498.23 658.23 521.97 671.94 545.72 658.23 545.72 630.82 521.97 617.11 498.23 630.82"/><polygon class="cls-1" points="521.95 260.73 521.95 288.14 545.69 301.85 569.43 288.14 569.43 260.73 545.69 247.02 521.95 260.73"/><polygon class="cls-1" points="450.81 630.82 450.81 658.23 474.55 671.94 498.29 658.23 498.29 630.82 474.55 617.11 450.81 630.82"/><polygon class="cls-1" points="474.52 507.45 474.52 534.87 498.26 548.58 522 534.87 522 507.45 498.26 493.75 474.52 507.45"/><polygon class="cls-1" points="450.81 384.09 450.81 411.5 474.55 425.21 498.29 411.5 498.29 384.09 474.55 370.38 450.81 384.09"/><polygon class="cls-1" points="450.81 137.36 450.81 164.78 474.55 178.48 498.29 164.78 498.29 137.36 474.55 123.65 450.81 137.36"/><polygon class="cls-1" points="474.52 14 474.52 41.41 498.26 55.12 522 41.41 522 14 498.26 0.29 474.52 14"/><polygon class="cls-1" points="403.38 630.82 403.38 658.23 427.12 671.94 450.86 658.23 450.86 630.82 427.12 617.11 403.38 630.82"/><polygon class="cls-1" points="427.09 507.45 427.09 534.87 450.83 548.58 474.57 534.87 474.57 507.45 450.83 493.75 427.09 507.45"/><polygon class="cls-1" points="403.38 384.09 403.38 411.5 427.12 425.21 450.86 411.5 450.86 384.09 427.12 370.38 403.38 384.09"/><polygon class="cls-1" points="427.09 260.73 427.09 288.14 450.83 301.85 474.57 288.14 474.57 260.73 450.83 247.02 427.09 260.73"/><polygon class="cls-1" points="403.38 137.36 403.38 164.78 427.12 178.48 450.86 164.78 450.86 137.36 427.12 123.65 403.38 137.36"/><polygon class="cls-1" points="427.09 14 427.09 41.41 450.83 55.12 474.57 41.41 474.57 14 450.83 0.29 427.09 14"/><polygon class="cls-1" points="355.95 384.09 355.95 411.5 379.69 425.21 403.44 411.5 403.44 384.09 379.69 370.38 355.95 384.09"/><polygon class="cls-1" points="379.67 260.73 379.67 288.14 403.41 301.85 427.15 288.14 427.15 260.73 403.41 247.02 379.67 260.73"/><polygon class="cls-1" points="355.95 137.36 355.95 164.78 379.69 178.48 403.44 164.78 403.44 137.36 379.69 123.65 355.95 137.36"/><polygon class="cls-1" points="308.52 630.82 308.52 658.23 332.27 671.94 356.01 658.23 356.01 630.82 332.27 617.11 308.52 630.82"/><polygon class="cls-1" points="332.24 507.45 332.24 534.87 355.98 548.58 379.72 534.87 379.72 507.45 355.98 493.75 332.24 507.45"/><polygon class="cls-1" points="261.1 630.82 261.1 658.23 284.84 671.94 308.58 658.23 308.58 630.82 284.84 617.11 261.1 630.82"/><polygon class="cls-1" points="284.81 507.45 284.81 534.87 308.55 548.58 332.29 534.87 332.29 507.45 308.55 493.75 284.81 507.45"/><polygon class="cls-1" points="261.1 384.09 261.1 411.5 284.84 425.21 308.58 411.5 308.58 384.09 284.84 370.38 261.1 384.09"/><polygon class="cls-1" points="284.81 260.73 284.81 288.14 308.55 301.85 332.29 288.14 332.29 260.73 308.55 247.02 284.81 260.73"/><polygon class="cls-1" points="261.1 137.36 261.1 164.78 284.84 178.48 308.58 164.78 308.58 137.36 284.84 123.65 261.1 137.36"/><polygon class="cls-1" points="237.38 507.45 237.38 534.87 261.13 548.58 284.87 534.87 284.87 507.45 261.13 493.75 237.38 507.45"/><polygon class="cls-1" points="213.67 384.09 213.67 411.5 237.41 425.21 261.15 411.5 261.15 384.09 237.41 370.38 213.67 384.09"/><polygon class="cls-1" points="213.67 137.36 213.67 164.78 237.41 178.48 261.15 164.78 261.15 137.36 237.41 123.65 213.67 137.36"/><polygon class="cls-1" points="166.24 630.82 166.24 658.23 189.99 671.94 213.73 658.23 213.73 630.82 189.99 617.11 166.24 630.82"/><polygon class="cls-1" points="166.24 384.09 166.24 411.5 189.99 425.21 213.73 411.5 213.73 384.09 189.99 370.38 166.24 384.09"/><polygon class="cls-1" points="189.96 260.73 189.96 288.14 213.7 301.85 237.44 288.14 237.44 260.73 213.7 247.02 189.96 260.73"/><polygon class="cls-1" points="166.24 137.36 166.24 164.78 189.99 178.48 213.73 164.78 213.73 137.36 189.99 123.65 166.24 137.36"/><polygon class="cls-1" points="118.82 630.82 118.82 658.23 142.56 671.94 166.3 658.23 166.3 630.82 142.56 617.11 118.82 630.82"/><polygon class="cls-1" points="142.53 507.45 142.53 534.87 166.27 548.58 190.01 534.87 190.01 507.45 166.27 493.75 142.53 507.45"/><polygon class="cls-1" points="118.82 384.09 118.82 411.5 142.56 425.21 166.3 411.5 166.3 384.09 142.56 370.38 118.82 384.09"/><polygon class="cls-1" points="118.82 137.36 118.82 164.78 142.56 178.48 166.3 164.78 166.3 137.36 142.56 123.65 118.82 137.36"/><polygon class="cls-1" points="71.39 630.82 71.39 658.23 95.13 671.94 118.87 658.23 118.87 630.82 95.13 617.11 71.39 630.82"/><polygon class="cls-1" points="95.1 507.45 95.1 534.87 118.84 548.58 142.59 534.87 142.59 507.45 118.84 493.75 95.1 507.45"/><polygon class="cls-1" points="95.1 260.73 95.1 288.14 118.84 301.85 142.59 288.14 142.59 260.73 118.84 247.02 95.1 260.73"/><polygon class="cls-1" points="23.96 630.82 23.96 658.23 47.7 671.94 71.45 658.23 71.45 630.82 47.7 617.11 23.96 630.82"/><polygon class="cls-1" points="23.96 466.33 23.96 493.75 47.7 507.45 71.45 493.75 71.45 466.33 47.7 452.63 23.96 466.33"/><polygon class="cls-1" points="23.96 384.09 23.96 411.5 47.7 425.21 71.45 411.5 71.45 384.09 47.7 370.38 23.96 384.09"/><polygon class="cls-1" points="47.68 260.73 47.68 288.14 71.42 301.85 95.16 288.14 95.16 260.73 71.42 247.02 47.68 260.73"/><polygon class="cls-1" points="23.96 137.36 23.96 164.78 47.7 178.48 71.45 164.78 71.45 137.36 47.7 123.65 23.96 137.36"/><polygon class="cls-1" points="0.25 425.21 0.25 452.63 23.99 466.33 47.73 452.63 47.73 425.21 23.99 411.5 0.25 425.21"/><polygon class="cls-1" points="0.25 178.48 0.25 205.9 23.99 219.6 47.73 205.9 47.73 178.48 23.99 164.78 0.25 178.48"/></g><g id="Must_Roll" data-name="Must Roll"><polygon class="cls-2" points="711.65 14 711.65 41.41 735.39 55.12 759.14 41.41 759.14 14 735.39 0.29 711.65 14"/><polygon class="cls-2" points="593.09 630.82 593.09 658.23 616.83 671.94 640.57 658.23 640.57 630.82 616.83 617.11 593.09 630.82"/><polygon class="cls-2" points="142.53 260.73 142.53 288.14 166.27 301.85 190.01 288.14 190.01 260.73 166.27 247.02 142.53 260.73"/></g><g id="Chute"><polygon class="cls-3" points="806.51 14 806.51 41.41 830.25 55.12 853.99 41.41 853.99 14 830.25 0.29 806.51 14"/></g><g id="Rocket"><polygon class="cls-4" points="545.66 630.82 545.66 658.23 569.4 671.94 593.14 658.23 593.14 630.82 569.4 617.11 545.66 630.82"/></g><g id="Percentages"><polygon class="cls-5" points="830.22 548.58 830.22 575.99 853.96 589.7 877.7 575.99 877.7 548.58 853.96 534.87 830.22 548.58"/><polygon class="cls-5" points="806.51 96.24 806.51 123.65 830.25 137.36 853.99 123.65 853.99 96.24 830.25 82.53 806.51 96.24"/><polygon class="cls-5" points="640.51 384.09 640.51 411.5 664.25 425.21 688 411.5 688 384.09 664.25 370.38 640.51 384.09"/><polygon class="cls-5" points="664.23 260.73 664.23 288.14 687.97 301.85 711.71 288.14 711.71 260.73 687.97 247.02 664.23 260.73"/><polygon class="cls-5" points="521.95 507.45 521.95 534.87 545.69 548.58 569.43 534.87 569.43 507.45 545.69 493.75 521.95 507.45"/><polygon class="cls-5" points="521.95 14 521.95 41.41 545.69 55.12 569.43 41.41 569.43 14 545.69 0.29 521.95 14"/><polygon class="cls-5" points="355.95 630.82 355.95 658.23 379.69 671.94 403.44 658.23 403.44 630.82 379.69 617.11 355.95 630.82"/><polygon class="cls-5" points="308.52 384.09 308.52 411.5 332.27 425.21 356.01 411.5 356.01 384.09 332.27 370.38 308.52 384.09"/><polygon class="cls-5" points="332.24 260.73 332.24 288.14 355.98 301.85 379.72 288.14 379.72 260.73 355.98 247.02 332.24 260.73"/><polygon class="cls-5" points="308.52 137.36 308.52 164.78 332.27 178.48 356.01 164.78 356.01 137.36 332.27 123.65 308.52 137.36"/><polygon class="cls-5" points="47.68 507.45 47.68 534.87 71.42 548.58 95.16 534.87 95.16 507.45 71.42 493.75 47.68 507.45"/><polygon class="cls-5" points="23.96 219.6 23.96 247.02 47.7 260.73 71.45 247.02 71.45 219.6 47.7 205.9 23.96 219.6"/></g><g id="Events"><polygon class="cls-6" points="830.22 301.85 830.22 329.26 853.96 342.97 877.7 329.26 877.7 301.85 853.96 288.14 830.22 301.85"/><polygon class="cls-6" points="782.79 630.82 782.79 658.23 806.53 671.94 830.28 658.23 830.28 630.82 806.53 617.11 782.79 630.82"/><polygon class="cls-6" points="759.08 14 759.08 41.41 782.82 55.12 806.56 41.41 806.56 14 782.82 0.29 759.08 14"/><polygon class="cls-6" points="687.94 137.36 687.94 164.78 711.68 178.48 735.42 164.78 735.42 137.36 711.68 123.65 687.94 137.36"/><polygon class="cls-6" points="498.23 384.09 498.23 411.5 521.97 425.21 545.72 411.5 545.72 384.09 521.97 370.38 498.23 384.09"/><polygon class="cls-6" points="498.23 137.36 498.23 164.78 521.97 178.48 545.72 164.78 545.72 137.36 521.97 123.65 498.23 137.36"/><polygon class="cls-6" points="474.52 260.73 474.52 288.14 498.26 301.85 522 288.14 522 260.73 498.26 247.02 474.52 260.73"/><polygon class="cls-6" points="379.67 507.45 379.67 534.87 403.41 548.58 427.15 534.87 427.15 507.45 403.41 493.75 379.67 507.45"/><polygon class="cls-6" points="213.67 630.82 213.67 658.23 237.41 671.94 261.15 658.23 261.15 630.82 237.41 617.11 213.67 630.82"/><polygon class="cls-6" points="237.38 260.73 237.38 288.14 261.13 301.85 284.87 288.14 284.87 260.73 261.13 247.02 237.38 260.73"/><polygon class="cls-6" points="189.96 507.45 189.96 534.87 213.7 548.58 237.44 534.87 237.44 507.45 213.7 493.75 189.96 507.45"/><polygon class="cls-6" points="71.39 384.09 71.39 411.5 95.13 425.21 118.87 411.5 118.87 384.09 95.13 370.38 71.39 384.09"/><polygon class="cls-6" points="71.39 137.36 71.39 164.78 95.13 178.48 118.87 164.78 118.87 137.36 95.13 123.65 71.39 137.36"/></g></svg>