<?xml version="1.0" encoding="utf-8"?>
<!-- Generator: Adobe Illustrator 24.1.2, SVG Export Plug-In . SVG Version: 6.00 Build 0)  -->
<svg version="1.1" id="Layer_1" xmlns="http://www.w3.org/2000/svg" xmlns:xlink="http://www.w3.org/1999/xlink" x="0px" y="0px"
	 viewBox="0 0 994.79 959.12" style="enable-background:new 0 0 994.79 959.12;" xml:space="preserve">
<style type="text/css">
	.st0{opacity:0.75;fill:#FFFFFF;stroke:#1E1E1E;stroke-width:0.5;stroke-miterlimit:10;}
	.st1{opacity:0.75;fill:#E73E00;stroke:#1E1E1E;stroke-width:0.5;stroke-miterlimit:10;}
	.st2{opacity:0.75;fill:#730300;stroke:#1E1E1E;stroke-width:0.5;stroke-miterlimit:10;}
	.st3{opacity:0.75;fill:#4DFF00;stroke:#1E1E1E;stroke-width:0.5;stroke-miterlimit:10;}
	.st4{opacity:0.75;fill:#48474B;stroke:#1E1E1E;stroke-width:0.5;stroke-miterlimit:10;}
	.st5{opacity:0.75;fill:#0042FF;stroke:#1E1E1E;stroke-width:0.5;stroke-miterlimit:10;}
</style>
<g id="Spaces">
	<polygon class="st0" points="884.24,206.48 884.24,233.9 907.98,247.6 931.72,233.9 931.72,206.48 907.98,192.77 	"/>
	<polygon class="st0" points="860.53,741.06 860.53,768.48 884.27,782.18 908.01,768.48 908.01,741.06 884.27,727.35 	"/>
	<polygon class="st0" points="860.53,658.82 860.53,686.23 884.27,699.94 908.01,686.23 908.01,658.82 884.27,645.11 	"/>
	<polygon class="st0" points="836.81,535.45 836.81,562.87 860.56,576.57 884.3,562.87 884.3,535.45 860.56,521.75 	"/>
	<polygon class="st0" points="860.53,494.33 860.53,521.75 884.27,535.45 908.01,521.75 908.01,494.33 884.27,480.62 	"/>
	<polygon class="st0" points="860.53,412.09 860.53,439.5 884.27,453.21 908.01,439.5 908.01,412.09 884.27,398.38 	"/>
	<polygon class="st0" points="836.81,288.72 836.81,316.14 860.56,329.85 884.3,316.14 884.3,288.72 860.56,275.02 	"/>
	<polygon class="st0" points="789.39,782.18 789.39,809.6 813.13,823.3 836.87,809.6 836.87,782.18 813.13,768.48 	"/>
	<polygon class="st0" points="813.1,658.82 813.1,686.23 836.84,699.94 860.58,686.23 860.58,658.82 836.84,645.11 	"/>
	<polygon class="st0" points="789.39,535.45 789.39,562.87 813.13,576.57 836.87,562.87 836.87,535.45 813.13,521.75 	"/>
	<polygon class="st0" points="813.1,412.09 813.1,439.5 836.84,453.21 860.58,439.5 860.58,412.09 836.84,398.38 	"/>
	<polygon class="st0" points="789.39,288.72 789.39,316.14 813.13,329.85 836.87,316.14 836.87,288.72 813.13,275.02 	"/>
	<polygon class="st0" points="741.96,782.18 741.96,809.6 765.7,823.3 789.44,809.6 789.44,782.18 765.7,768.48 	"/>
	<polygon class="st0" points="765.67,658.82 765.67,686.23 789.42,699.94 813.16,686.23 813.16,658.82 789.42,645.11 	"/>
	<polygon class="st0" points="741.96,535.45 741.96,562.87 765.7,576.57 789.44,562.87 789.44,535.45 765.7,521.75 	"/>
	<polygon class="st0" points="765.67,412.09 765.67,439.5 789.42,453.21 813.16,439.5 813.16,412.09 789.42,398.38 	"/>
	<polygon class="st0" points="694.53,782.18 694.53,809.6 718.28,823.3 742.02,809.6 742.02,782.18 718.28,768.48 	"/>
	<polygon class="st0" points="718.25,658.82 718.25,686.23 741.99,699.94 765.73,686.23 765.73,658.82 741.99,645.11 	"/>
	<polygon class="st0" points="694.53,288.72 694.53,316.14 718.28,329.85 742.02,316.14 742.02,288.72 718.28,275.02 	"/>
	<polygon class="st0" points="718.25,165.36 718.25,192.77 741.99,206.48 765.73,192.77 765.73,165.36 741.99,151.65 	"/>
	<polygon class="st0" points="670.82,658.82 670.82,686.23 694.56,699.94 718.3,686.23 718.3,658.82 694.56,645.11 	"/>
	<polygon class="st0" points="647.11,535.45 647.11,562.87 670.85,576.57 694.59,562.87 694.59,535.45 670.85,521.75 	"/>
	<polygon class="st0" points="670.82,412.09 670.82,439.5 694.56,453.21 718.3,439.5 718.3,412.09 694.56,398.38 	"/>
	<polygon class="st0" points="647.11,288.72 647.11,316.14 670.85,329.85 694.59,316.14 694.59,288.72 670.85,275.02 	"/>
	<polygon class="st0" points="670.82,165.36 670.82,192.77 694.56,206.48 718.3,192.77 718.3,165.36 694.56,151.65 	"/>
	<polygon class="st0" points="623.39,658.82 623.39,686.23 647.14,699.94 670.88,686.23 670.88,658.82 647.14,645.11 	"/>
	<polygon class="st0" points="599.68,535.45 599.68,562.87 623.42,576.57 647.16,562.87 647.16,535.45 623.42,521.75 	"/>
	<polygon class="st0" points="623.39,412.09 623.39,439.5 647.14,453.21 670.88,439.5 670.88,412.09 647.14,398.38 	"/>
	<polygon class="st0" points="599.68,288.72 599.68,316.14 623.42,329.85 647.16,316.14 647.16,288.72 623.42,275.02 	"/>
	<polygon class="st0" points="623.39,165.36 623.39,192.77 647.14,206.48 670.88,192.77 670.88,165.36 647.14,151.65 	"/>
	<polygon class="st0" points="552.25,782.18 552.25,809.6 575.99,823.3 599.74,809.6 599.74,782.18 575.99,768.48 	"/>
	<polygon class="st0" points="575.97,412.09 575.97,439.5 599.71,453.21 623.45,439.5 623.45,412.09 599.71,398.38 	"/>
	<polygon class="st0" points="504.83,782.18 504.83,809.6 528.57,823.3 552.31,809.6 552.31,782.18 528.57,768.48 	"/>
	<polygon class="st0" points="528.54,658.82 528.54,686.23 552.28,699.94 576.02,686.23 576.02,658.82 552.28,645.11 	"/>
	<polygon class="st0" points="504.83,535.45 504.83,562.87 528.57,576.57 552.31,562.87 552.31,535.45 528.57,521.75 	"/>
	<polygon class="st0" points="504.83,288.72 504.83,316.14 528.57,329.85 552.31,316.14 552.31,288.72 528.57,275.02 	"/>
	<polygon class="st0" points="528.54,165.36 528.54,192.77 552.28,206.48 576.02,192.77 576.02,165.36 552.28,151.65 	"/>
	<polygon class="st0" points="457.4,782.18 457.4,809.6 481.14,823.3 504.88,809.6 504.88,782.18 481.14,768.48 	"/>
	<polygon class="st0" points="481.11,658.82 481.11,686.23 504.85,699.94 528.6,686.23 528.6,658.82 504.85,645.11 	"/>
	<polygon class="st0" points="457.4,535.45 457.4,562.87 481.14,576.57 504.88,562.87 504.88,535.45 481.14,521.75 	"/>
	<polygon class="st0" points="481.11,412.09 481.11,439.5 504.85,453.21 528.6,439.5 528.6,412.09 504.85,398.38 	"/>
	<polygon class="st0" points="457.4,288.72 457.4,316.14 481.14,329.85 504.88,316.14 504.88,288.72 481.14,275.02 	"/>
	<polygon class="st0" points="481.11,165.36 481.11,192.77 504.85,206.48 528.6,192.77 528.6,165.36 504.85,151.65 	"/>
	<polygon class="st0" points="409.97,535.45 409.97,562.87 433.71,576.57 457.46,562.87 457.46,535.45 433.71,521.75 	"/>
	<polygon class="st0" points="433.69,412.09 433.69,439.5 457.43,453.21 481.17,439.5 481.17,412.09 457.43,398.38 	"/>
	<polygon class="st0" points="409.97,288.72 409.97,316.14 433.71,329.85 457.46,316.14 457.46,288.72 433.71,275.02 	"/>
	<polygon class="st0" points="362.55,782.18 362.55,809.6 386.29,823.3 410.03,809.6 410.03,782.18 386.29,768.48 	"/>
	<polygon class="st0" points="386.26,658.82 386.26,686.23 410,699.94 433.74,686.23 433.74,658.82 410,645.11 	"/>
	<polygon class="st0" points="315.12,782.18 315.12,809.6 338.86,823.3 362.6,809.6 362.6,782.18 338.86,768.48 	"/>
	<polygon class="st0" points="338.83,658.82 338.83,686.23 362.57,699.94 386.32,686.23 386.32,658.82 362.57,645.11 	"/>
	<polygon class="st0" points="315.12,535.45 315.12,562.87 338.86,576.57 362.6,562.87 362.6,535.45 338.86,521.75 	"/>
	<polygon class="st0" points="338.83,412.09 338.83,439.5 362.57,453.21 386.32,439.5 386.32,412.09 362.57,398.38 	"/>
	<polygon class="st0" points="315.12,288.72 315.12,316.14 338.86,329.85 362.6,316.14 362.6,288.72 338.86,275.02 	"/>
	<polygon class="st0" points="291.41,658.82 291.41,686.23 315.15,699.94 338.89,686.23 338.89,658.82 315.15,645.11 	"/>
	<polygon class="st0" points="267.69,535.45 267.69,562.87 291.43,576.57 315.18,562.87 315.18,535.45 291.43,521.75 	"/>
	<polygon class="st0" points="267.69,288.72 267.69,316.14 291.43,329.85 315.18,316.14 315.18,288.72 291.43,275.02 	"/>
	<polygon class="st0" points="220.27,782.18 220.27,809.6 244.01,823.3 267.75,809.6 267.75,782.18 244.01,768.48 	"/>
	<polygon class="st0" points="220.27,535.45 220.27,562.87 244.01,576.57 267.75,562.87 267.75,535.45 244.01,521.75 	"/>
	<polygon class="st0" points="243.98,412.09 243.98,439.5 267.72,453.21 291.46,439.5 291.46,412.09 267.72,398.38 	"/>
	<polygon class="st0" points="220.27,288.72 220.27,316.14 244.01,329.85 267.75,316.14 267.75,288.72 244.01,275.02 	"/>
	<polygon class="st0" points="172.84,782.18 172.84,809.6 196.58,823.3 220.32,809.6 220.32,782.18 196.58,768.48 	"/>
	<polygon class="st0" points="196.55,658.82 196.55,686.23 220.29,699.94 244.03,686.23 244.03,658.82 220.29,645.11 	"/>
	<polygon class="st0" points="172.84,535.45 172.84,562.87 196.58,576.57 220.32,562.87 220.32,535.45 196.58,521.75 	"/>
	<polygon class="st0" points="172.84,288.72 172.84,316.14 196.58,329.85 220.32,316.14 220.32,288.72 196.58,275.02 	"/>
	<polygon class="st0" points="125.41,782.18 125.41,809.6 149.15,823.3 172.89,809.6 172.89,782.18 149.15,768.48 	"/>
	<polygon class="st0" points="149.12,658.82 149.12,686.23 172.87,699.94 196.61,686.23 196.61,658.82 172.87,645.11 	"/>
	<polygon class="st0" points="149.12,412.09 149.12,439.5 172.87,453.21 196.61,439.5 196.61,412.09 172.87,398.38 	"/>
	<polygon class="st0" points="77.98,782.18 77.98,809.6 101.73,823.3 125.47,809.6 125.47,782.18 101.73,768.48 	"/>
	<polygon class="st0" points="77.98,617.7 77.98,645.11 101.73,658.82 125.47,645.11 125.47,617.7 101.73,603.99 	"/>
	<polygon class="st0" points="77.98,535.45 77.98,562.87 101.73,576.57 125.47,562.87 125.47,535.45 101.73,521.75 	"/>
	<polygon class="st0" points="101.7,412.09 101.7,439.5 125.44,453.21 149.18,439.5 149.18,412.09 125.44,398.38 	"/>
	<polygon class="st0" points="77.98,288.72 77.98,316.14 101.73,329.85 125.47,316.14 125.47,288.72 101.73,275.02 	"/>
	<polygon class="st0" points="54.27,576.57 54.27,603.99 78.01,617.7 101.75,603.99 101.75,576.57 78.01,562.87 	"/>
	<polygon class="st0" points="54.27,329.85 54.27,357.26 78.01,370.97 101.75,357.26 101.75,329.85 78.01,316.14 	"/>
</g>
<g id="Mustroll">
	<polygon class="st1" points="765.67,165.36 765.67,192.77 789.42,206.48 813.16,192.77 813.16,165.36 789.42,151.65 	"/>
	<polygon class="st1" points="647.11,782.18 647.11,809.6 670.85,823.3 694.59,809.6 694.59,782.18 670.85,768.48 	"/>
	<polygon class="st1" points="196.55,412.09 196.55,439.5 220.29,453.21 244.03,439.5 244.03,412.09 220.29,398.38 	"/>
</g>
<g id="Chute">
	<polygon class="st2" points="860.53,165.36 860.53,192.77 884.27,206.48 908.01,192.77 908.01,165.36 884.27,151.65 	"/>
</g>
<g id="Rocket">
	<polygon class="st3" points="599.68,782.18 599.68,809.6 623.42,823.3 647.16,809.6 647.16,782.18 623.42,768.48 	"/>
</g>
<g id="Percentages">
	<polygon class="st4" points="884.24,699.94 884.24,727.35 907.98,741.06 931.72,727.35 931.72,699.94 907.98,686.23 	"/>
	<polygon class="st4" points="860.53,247.6 860.53,275.02 884.27,288.72 908.01,275.02 908.01,247.6 884.27,233.9 	"/>
	<polygon class="st4" points="694.53,535.45 694.53,562.87 718.28,576.57 742.02,562.87 742.02,535.45 718.28,521.75 	"/>
	<polygon class="st4" points="718.25,412.09 718.25,439.5 741.99,453.21 765.73,439.5 765.73,412.09 741.99,398.38 	"/>
	<polygon class="st4" points="575.97,658.82 575.97,686.23 599.71,699.94 623.45,686.23 623.45,658.82 599.71,645.11 	"/>
	<polygon class="st4" points="575.97,165.36 575.97,192.77 599.71,206.48 623.45,192.77 623.45,165.36 599.71,151.65 	"/>
	<polygon class="st4" points="409.97,782.18 409.97,809.6 433.71,823.3 457.46,809.6 457.46,782.18 433.71,768.48 	"/>
	<polygon class="st4" points="362.55,535.45 362.55,562.87 386.29,576.57 410.03,562.87 410.03,535.45 386.29,521.75 	"/>
	<polygon class="st4" points="386.26,412.09 386.26,439.5 410,453.21 433.74,439.5 433.74,412.09 410,398.38 	"/>
	<polygon class="st4" points="362.55,288.72 362.55,316.14 386.29,329.85 410.03,316.14 410.03,288.72 386.29,275.02 	"/>
	<polygon class="st4" points="101.7,658.82 101.7,686.23 125.44,699.94 149.18,686.23 149.18,658.82 125.44,645.11 	"/>
	<polygon class="st4" points="77.98,370.97 77.98,398.38 101.73,412.09 125.47,398.38 125.47,370.97 101.73,357.26 	"/>
</g>
<g id="Events">
	<polygon class="st5" points="884.24,453.21 884.24,480.62 907.98,494.33 931.72,480.62 931.72,453.21 907.98,439.5 	"/>
	<polygon class="st5" points="836.81,782.18 836.81,809.6 860.56,823.3 884.3,809.6 884.3,782.18 860.56,768.48 	"/>
	<polygon class="st5" points="813.1,165.36 813.1,192.77 836.84,206.48 860.58,192.77 860.58,165.36 836.84,151.65 	"/>
	<polygon class="st5" points="741.96,288.72 741.96,316.14 765.7,329.85 789.44,316.14 789.44,288.72 765.7,275.02 	"/>
	<polygon class="st5" points="552.25,535.45 552.25,562.87 575.99,576.57 599.74,562.87 599.74,535.45 575.99,521.75 	"/>
	<polygon class="st5" points="552.25,288.72 552.25,316.14 575.99,329.85 599.74,316.14 599.74,288.72 575.99,275.02 	"/>
	<polygon class="st5" points="528.54,412.09 528.54,439.5 552.28,453.21 576.02,439.5 576.02,412.09 552.28,398.38 	"/>
	<polygon class="st5" points="433.69,658.82 433.69,686.23 457.43,699.94 481.17,686.23 481.17,658.82 457.43,645.11 	"/>
	<polygon class="st5" points="267.69,782.18 267.69,809.6 291.43,823.3 315.18,809.6 315.18,782.18 291.43,768.48 	"/>
	<polygon class="st5" points="291.41,412.09 291.41,439.5 315.15,453.21 338.89,439.5 338.89,412.09 315.15,398.38 	"/>
	<polygon class="st5" points="243.98,658.82 243.98,686.23 267.72,699.94 291.46,686.23 291.46,658.82 267.72,645.11 	"/>
	<polygon class="st5" points="125.41,535.45 125.41,562.87 149.15,576.57 172.89,562.87 172.89,535.45 149.15,521.75 	"/>
	<polygon class="st5" points="125.41,288.72 125.41,316.14 149.15,329.85 172.89,316.14 172.89,288.72 149.15,275.02 	"/>
</g>
</svg>
